<svg xmlns="http://www.w3.org/2000/svg" version="1.1" xmlns:xlink="http://www.w3.org/1999/xlink" xmlns:svgjs="http://svgjs.com/svgjs" width="1440" height="560" preserveAspectRatio="none" viewBox="0 0 1440 560"><g mask="url(&quot;#SvgjsMask1035&quot;)" fill="none"><path d="M1464 560L0 560 L0 479.69Q15.46 423.15, 72 438.61Q116.64 411.25, 144 455.89Q186.08 425.97, 216 468.05Q264.28 396.33, 336 444.61Q388.85 425.46, 408 478.3Q459.16 409.46, 528 460.61Q580.7 393.31, 648 446.01Q699.27 425.28, 720 476.55Q747.86 432.41, 792 460.27Q819.65 415.92, 864 443.57Q916.76 424.34, 936 477.1Q960.95 430.06, 1008 455.01Q1062.42 389.43, 1128 443.85Q1179.15 423, 1200 474.16Q1228.05 430.21, 1272 458.25Q1302.22 416.47, 1344 446.69Q1418.29 400.98, 1464 475.26z" fill="rgba(148, 243, 228, 1)"></path><path d="M1488 560L0 560 L0 493.09Q58.81 431.9, 120 490.72Q163.24 461.96, 192 505.2Q214.16 455.36, 264 477.51Q308.02 449.53, 336 493.55Q403.28 440.83, 456 508.11Q479.44 459.55, 528 482.99Q558.71 441.7, 600 472.41Q646.32 446.73, 672 493.05Q713.62 462.67, 744 504.29Q763.79 452.08, 816 471.86Q886.43 422.29, 936 492.72Q1001.96 438.69, 1056 504.65Q1103.02 431.67, 1176 478.69Q1218.61 449.29, 1248 491.9Q1316.57 440.47, 1368 509.04Q1410.8 431.84, 1488 474.64z" fill="rgba(55, 170, 156, 1)"></path><path d="M1464 560L0 560 L0 512.01Q63.58 455.59, 120 519.16Q162.56 489.72, 192 532.29Q211.75 480.04, 264 499.79Q309.84 473.63, 336 519.48Q405.93 469.41, 456 539.35Q474.08 485.43, 528 503.51Q575.55 479.06, 600 526.61Q665.58 472.19, 720 537.78Q768.86 466.64, 840 515.5Q905.68 461.18, 960 526.86Q1026.51 473.38, 1080 539.89Q1099.62 487.5, 1152 507.12Q1222.03 457.15, 1272 527.18Q1337.3 472.48, 1392 537.78Q1415.68 489.46, 1464 513.14z" fill="rgba(51, 63, 68, 1)"></path><path d="M1488 560L0 560 L0 530.2Q43.61 501.81, 72 545.42Q137.64 491.06, 192 556.69Q239.31 484, 312 531.31Q379.14 478.45, 432 545.6Q480.91 522.51, 504 571.42Q520.28 515.7, 576 531.98Q624.3 508.28, 648 556.57Q702.11 490.68, 768 544.8Q798.11 502.91, 840 533.02Q888.75 509.77, 912 558.52Q941.74 516.26, 984 546Q1036.72 478.72, 1104 531.44Q1152.42 507.87, 1176 556.29Q1229.14 489.43, 1296 542.58Q1368.67 495.25, 1416 567.92Q1433.15 513.07, 1488 530.22z" fill="white"></path></g><defs><mask id="SvgjsMask1035"><rect width="1440" height="560" fill="#ffffff"></rect></mask></defs></svg>